<svg width="19" height="19" viewBox="0 0 19 19" fill="none" xmlns="http://www.w3.org/2000/svg">
<path d="M9.08789 18.1758C14.0713 18.1758 18.1846 14.0625 18.1846 9.08789C18.1846 4.11328 14.0625 0 9.0791 0C4.10449 0 0 4.11328 0 9.08789C0 14.0625 4.11328 18.1758 9.08789 18.1758ZM9.0791 10.5205C7.35645 10.5117 6.02051 9.07031 6.02051 7.16309C6.00293 5.37012 7.36523 3.87598 9.0791 3.87598C10.793 3.87598 12.1377 5.37012 12.1377 7.16309C12.1377 9.07031 10.8018 10.5381 9.0791 10.5205ZM9.0791 16.6729C7.11035 16.6729 5.01855 15.8555 3.69141 14.4316C4.70215 12.9199 6.70605 12.041 9.0791 12.041C11.4258 12.041 13.4473 12.9023 14.4668 14.4316C13.1396 15.8555 11.0479 16.6729 9.0791 16.6729Z" fill="#AEAEB2"/>
</svg>
