<svg width="188" height="70" viewBox="0 0 188 70" fill="none" xmlns="http://www.w3.org/2000/svg">
<path d="M81.4482 31H76.3213V18.439H72.0854V14.3374H85.6841V18.439H81.4482V31ZM94.4069 14.3374C98.7649 14.3374 101.011 16.6323 101.011 20.0747C101.011 22.8335 99.0334 24.3716 98.0935 24.7988L101.365 31H95.7375L93.0642 25.4458H91.7824V31H86.7653V14.3374H94.4069ZM91.7824 22.0278H93.6257C94.7487 22.0278 95.7253 21.4053 95.7253 20.0503C95.7253 18.6831 94.6999 18.0117 93.6257 18.0117H91.7824V22.0278ZM106.304 31H101.238L106.291 14.3374H112.786L117.79 31H112.322L111.601 27.8506H107.048L106.304 31ZM109.49 18.5732H109.233L107.891 24.2495H110.784L109.49 18.5732ZM120.63 31L115.734 14.3374H121.716L124.047 25.751H124.279L126.538 14.3374H132.141L127.356 31H120.63ZM144.953 27.0571V31H133.076V14.3374H144.953V18.2803H138.141V20.9048H144.501V24.4692H138.141V27.0571H144.953ZM158.241 26.8008V31H146.999V14.3374H152.126V26.8008H158.241ZM81.0088 36.3374C85.2202 36.3374 87.1489 39.2793 87.1489 42.4653C87.1489 45.7124 85.1592 48.4956 80.9355 48.4956H78.5186V53H73.4038V36.3374H81.0088ZM81.9731 42.4653C81.9731 40.9272 81.0332 40.1216 79.6172 40.1216H78.4941V44.8091H79.6172C81.0332 44.8091 81.9731 43.9668 81.9731 42.4653ZM99.7902 48.8008V53H88.5476V36.3374H93.6745V48.8008H99.7902ZM105.425 53H100.359L105.413 36.3374H111.907L116.912 53H111.443L110.723 49.8506H106.169L105.425 53ZM108.611 40.5732H108.354L107.012 46.2495H109.905L108.611 40.5732ZM122.607 53H117.907V36.3374H121.753L127.429 44.394H127.624V36.3374H132.324V53H128.515L122.802 44.7969H122.607V53ZM139.435 53H134.736V36.3374H138.581L144.257 44.394H144.452V36.3374H149.152V53H145.344L139.631 44.7969H139.435V53ZM163.441 49.0571V53H151.564V36.3374H163.441V40.2803H156.63V42.9048H162.99V46.4692H156.63V49.0571H163.441ZM173.129 36.3374C177.487 36.3374 179.733 38.6323 179.733 42.0747C179.733 44.8335 177.755 46.3716 176.815 46.7988L180.087 53H174.459L171.786 47.4458H170.504V53H165.487V36.3374H173.129ZM170.504 44.0278H172.347C173.47 44.0278 174.447 43.4053 174.447 42.0503C174.447 40.6831 173.422 40.0117 172.347 40.0117H170.504V44.0278ZM181.046 50.6562C181.046 49.2036 182.242 48.0073 183.695 48.0073C185.147 48.0073 186.344 49.2036 186.344 50.6562C186.344 52.1089 185.147 53.3052 183.695 53.3052C182.242 53.3052 181.046 52.1089 181.046 50.6562Z" fill="#1E1E1C"/>
<g filter="url(#filter0_d_4_3022)">
<rect x="10" y="8" width="50" height="50" rx="10" fill="url(#paint0_linear_4_3022)"/>
</g>
<g filter="url(#filter1_d_4_3022)">
<path d="M37.6692 50C38.8839 50 39.7249 49.0189 40.3011 47.5238L50.5795 20.6442C50.8443 19.9434 51 19.336 51 18.8065C51 17.7008 50.2992 17 49.1779 17C48.664 17 48.0411 17.1402 47.3558 17.4049L20.3516 27.7456C19.0123 28.2596 18 29.1005 18 30.3152C18 31.8103 19.1057 32.3709 20.6319 32.8226L31.8759 36.1241L35.1463 47.2435C35.6135 48.832 36.1741 50 37.6692 50ZM32.7791 33.2586L23.1081 30.2997C22.8745 30.2374 22.8122 30.1595 22.8122 30.0661C22.8122 29.9571 22.8745 29.8636 23.0769 29.8013L41.5625 22.731C42.8863 22.2171 44.1789 21.5941 45.596 20.9401C44.4748 21.8433 43.1043 22.949 42.1699 23.8834L32.7791 33.2586ZM37.9495 45.2034C37.8405 45.2034 37.7626 45.11 37.7003 44.8919L34.7414 35.2209L44.1166 25.8301C45.0198 24.9113 46.1723 23.4941 47.0755 22.3572C46.4214 23.79 45.7829 25.0982 45.269 26.4375L38.1987 44.9231C38.1208 45.1255 38.0585 45.2034 37.9495 45.2034Z" fill="white"/>
</g>
<defs>
<filter id="filter0_d_4_3022" x="0" y="0" width="70" height="70" filterUnits="userSpaceOnUse" color-interpolation-filters="sRGB">
<feFlood flood-opacity="0" result="BackgroundImageFix"/>
<feColorMatrix in="SourceAlpha" type="matrix" values="0 0 0 0 0 0 0 0 0 0 0 0 0 0 0 0 0 0 127 0" result="hardAlpha"/>
<feOffset dy="2"/>
<feGaussianBlur stdDeviation="5"/>
<feComposite in2="hardAlpha" operator="out"/>
<feColorMatrix type="matrix" values="0 0 0 0 0 0 0 0 0 0 0 0 0 0 0 0 0 0 0.2 0"/>
<feBlend mode="normal" in2="BackgroundImageFix" result="effect1_dropShadow_4_3022"/>
<feBlend mode="normal" in="SourceGraphic" in2="effect1_dropShadow_4_3022" result="shape"/>
</filter>
<filter id="filter1_d_4_3022" x="10" y="12" width="49" height="49" filterUnits="userSpaceOnUse" color-interpolation-filters="sRGB">
<feFlood flood-opacity="0" result="BackgroundImageFix"/>
<feColorMatrix in="SourceAlpha" type="matrix" values="0 0 0 0 0 0 0 0 0 0 0 0 0 0 0 0 0 0 127 0" result="hardAlpha"/>
<feOffset dy="3"/>
<feGaussianBlur stdDeviation="4"/>
<feComposite in2="hardAlpha" operator="out"/>
<feColorMatrix type="matrix" values="0 0 0 0 0 0 0 0 0 0 0 0 0 0 0 0 0 0 0.35 0"/>
<feBlend mode="normal" in2="BackgroundImageFix" result="effect1_dropShadow_4_3022"/>
<feBlend mode="normal" in="SourceGraphic" in2="effect1_dropShadow_4_3022" result="shape"/>
</filter>
<linearGradient id="paint0_linear_4_3022" x1="35" y1="8" x2="35" y2="58" gradientUnits="userSpaceOnUse">
<stop offset="0.104167" stop-color="#1BC8FF"/>
<stop offset="0.479167" stop-color="#1AA2FD"/>
<stop offset="0.973958" stop-color="#1A67FB"/>
</linearGradient>
</defs>
</svg>
